<svg aria-hidden="true" style="position:absolute;width:0;height:0;overflow:hidden" xmlns="http://www.w3.org/2000/svg"><defs><symbol id="icon-USDC" viewBox="0 0 137 32"><path fill="#d9d9d9" style="fill:var(--color1, #d9d9d9)" d="M40.229 7.786h1.113c.285 0 .516.219.516.49v9.491c0 2.999 1.711 4.892 4.887 4.892 3.181 0 4.887-1.893 4.887-4.892V8.276c0-.271.23-.49.516-.49h1.114c.285 0 .516.219.516.49v9.518c0 4.084-2.353 6.686-7.032 6.686s-7.032-2.628-7.032-6.665V8.271c-.005-.266.225-.485.516-.485zm16.839 12.928a.476.476 0 0 1 .675-.042 7.431 7.431 0 0 0 5.074 1.987c3.077 0 4.059-1.575 4.059-2.832 0-1.971-2.09-2.508-4.366-3.098-2.765-.688-5.847-1.424-5.847-4.647 0-2.701 2.534-4.548 5.924-4.548 2.435 0 4.361.709 5.781 1.956a.472.472 0 0 1 .044.678l-.675.782a.464.464 0 0 1-.658.037c-1.262-1.121-2.924-1.638-4.651-1.638-2.073 0-3.543 1.059-3.543 2.602 0 1.648 1.991 2.138 4.191 2.701 2.819.714 6.023 1.549 6.023 4.996 0 2.383-1.711 4.819-6.363 4.819-2.787 0-4.882-.934-6.308-2.289a.47.47 0 0 1-.038-.652l.68-.814zM71.653 8.276c0-.271.23-.49.516-.49h5.376c5.354 0 8.848 3.562 8.848 8.214 0 4.673-3.489 8.188-8.848 8.188h-5.376a.503.503 0 0 1-.516-.49V8.277zm5.902 14.092c4.191 0 6.621-2.853 6.621-6.368 0-3.546-2.353-6.394-6.621-6.394h-3.746v12.761h3.746zm30.306-4.131c0-3.442 2.381-6.222 6.182-6.222s6.182 2.78 6.182 6.222c0 3.442-2.381 6.248-6.182 6.248s-6.182-2.811-6.182-6.248zm10.318 0c0-2.409-1.47-4.574-4.136-4.574s-4.163 2.164-4.163 4.574c0 2.435 1.497 4.6 4.163 4.6s4.136-2.164 4.136-4.6zm3.91-9.173c0-.688.593-1.231 1.295-1.231.724 0 1.321.537 1.321 1.231 0 .688-.593 1.257-1.321 1.257-.703 0-1.295-.568-1.295-1.257zm.851 3.244h.904c.286 0 .516.219.516.49v10.9c0 .271-.23.49-.516.49h-.904a.503.503 0 0 1-.516-.49v-10.9c0-.271.23-.49.516-.49zm12.594 4.109c0-2.091-1.114-2.754-2.792-2.754-1.524 0-2.978.887-3.703 1.846v8.188c0 .271-.23.49-.516.49h-.9a.504.504 0 0 1-.516-.49v-10.9c0-.271.231-.49.516-.49h.905c.286 0 .516.219.516.49v1.231c.877-.986 2.588-2.013 4.448-2.013 2.611 0 3.988 1.257 3.988 3.833v7.844c0 .271-.23.49-.516.49h-.905a.504.504 0 0 1-.516-.49v-7.27h-.011v-.005zM91.296 16c0-5.043 3.905-8.48 8.798-8.48 2.896 0 4.931 1.199 6.303 2.842.17.209.11.516-.132.647l-.965.506a.534.534 0 0 1-.653-.12c-1.02-1.205-2.677-2.05-4.553-2.05-3.703 0-6.571 2.754-6.571 6.665 0 3.885 2.869 6.665 6.571 6.665 1.881 0 3.538-.829 4.553-2.05a.533.533 0 0 1 .653-.125l.976.506c.252.13.313.443.132.652-1.426 1.658-3.417 2.837-6.313 2.837-4.887-.016-8.798-3.452-8.798-8.495zM16.829 0C7.537 0 0 7.16 0 16c0 8.834 7.531 16 16.829 16s16.829-7.16 16.829-16c0-8.834-7.531-16-16.829-16zm-3.154 27.124c0 .375-.313.589-.691.475-5.09-1.544-8.776-6.081-8.776-11.432s3.686-9.888 8.776-11.432c.384-.115.691.099.691.475v.928c0 .25-.203.548-.455.626-4.026 1.403-6.911 5.08-6.911 9.392 0 4.308 2.885 7.984 6.911 9.392.252.089.455.375.455.626v.949zm4.212-3.458h-.005a.515.515 0 0 1-.527.501h-1.048a.514.514 0 0 1-.527-.501v-1.58c-2.298-.297-3.417-1.518-3.724-3.181-.055-.282.186-.537.488-.537h1.201c.252 0 .461.167.516.407.225.991.823 1.752 2.666 1.752 1.36 0 2.32-.72 2.32-1.799s-.565-1.486-2.562-1.799c-2.946-.375-4.333-1.225-4.333-3.421 0-1.695 1.344-3.009 3.434-3.296V8.663c0-.276.236-.501.527-.501h1.048c.291 0 .527.224.527.501v1.596c1.695.287 2.77 1.205 3.121 2.722.066.287-.17.558-.483.558h-1.108a.54.54 0 0 1-.51-.37c-.296-.965-1.02-1.382-2.282-1.382-1.393 0-2.112.641-2.112 1.538 0 .949.411 1.424 2.545 1.721 2.891.376 4.383 1.163 4.383 3.499 0 1.773-1.388 3.213-3.554 3.546v1.575zm2.792 3.932c-.384.115-.691-.099-.691-.475v-.928c0-.276.176-.532.455-.626 4.026-1.403 6.911-5.08 6.911-9.392s-2.885-7.984-6.911-9.392c-.252-.089-.455-.375-.455-.626v-.928c0-.375.313-.595.691-.475 5.09 1.544 8.776 6.081 8.776 11.432-.006 5.33-3.692 9.862-8.776 11.411z"/></symbol><symbol id="icon-BINANCE" viewBox="0 0 148 32"><path fill="#d9d9d9" style="fill:var(--color1, #d9d9d9)" d="m9.041 13.444 5.741-6.213 5.741 6.219 3.343-3.618L14.782.001 5.698 9.832l3.343 3.612zM3.34 12.381 0 15.996l3.34 3.615 3.34-3.615-3.34-3.615zM9.041 18.55l5.741 6.213 5.741-6.213 3.343 3.612L14.782 32l-9.09-9.838 3.349-3.612zM26.22 12.383l-3.34 3.615 3.34 3.615 3.34-3.615-3.34-3.615z"/><path fill="#d9d9d9" style="fill:var(--color1, #d9d9d9)" d="m18.172 16-3.39-3.669L11.386 16l3.396 3.669L18.172 16zM34.771 7.752h7.268c1.804 0 3.167.502 4.09 1.501.717.776 1.075 1.736 1.075 2.887v.051c0 .483-.053.916-.164 1.285s-.259.706-.447 1.005-.4.56-.646.788a4.14 4.14 0 0 1-.787.579c.905.369 1.622.878 2.139 1.514s.782 1.526.782 2.652v.051c0 .776-.135 1.456-.411 2.035s-.67 1.068-1.187 1.456c-.517.388-1.134.681-1.857.871s-1.522.293-2.403.293h-7.45V7.753zm6.54 6.862c.764 0 1.369-.14 1.816-.426.446-.28.67-.738.67-1.367v-.051c0-.566-.194-.998-.582-1.297s-.946-.451-1.68-.451h-3.402v3.587c-.006.006 3.179.006 3.179.006zm.916 6.836c.764 0 1.357-.146 1.792-.445s.652-.763.652-1.393v-.051c0-.566-.2-1.011-.605-1.348-.405-.331-1.052-.496-1.951-.496h-3.984v3.733h4.095zM52.398 7.752h3.449v16.967h-3.449V7.752zM61.071 7.752h3.179L71.595 18.2V7.752h3.402v16.967h-2.932l-7.591-10.785v10.785h-3.402V7.752zM85.444 7.631h3.179l6.722 17.087h-3.608l-1.434-3.803h-6.628l-1.434 3.803h-3.514l6.716-17.087zm3.625 9.991-2.086-5.501-2.08 5.501h4.166zM99.064 7.752h3.179l7.345 10.448V7.752h3.402v16.967h-2.932l-7.591-10.785v10.785h-3.402V7.752zM125.411 25.011c-1.152 0-2.215-.229-3.202-.68s-1.839-1.068-2.55-1.857c-.717-.782-1.275-1.711-1.68-2.773a9.53 9.53 0 0 1-.605-3.415v-.051c0-1.215.2-2.347.605-3.409a8.864 8.864 0 0 1 1.68-2.785c.717-.801 1.575-1.431 2.574-1.889s2.104-.693 3.314-.693c.729 0 1.398.064 2.004.191s1.152.305 1.645.534c.494.229.946.502 1.369.827.417.324.805.68 1.163 1.068l-2.192 2.741c-.611-.598-1.234-1.068-1.868-1.405s-1.346-.509-2.139-.509c-.658 0-1.263.14-1.827.413-.558.273-1.04.655-1.445 1.138s-.717 1.049-.94 1.685-.335 1.323-.335 2.048v.051c0 .725.112 1.412.335 2.06s.535 1.215.928 1.698c.394.483.876.871 1.434 1.151a3.989 3.989 0 0 0 1.845.426c.899 0 1.651-.178 2.274-.534.617-.356 1.234-.839 1.845-1.456l2.198 2.398c-.405.471-.823.89-1.252 1.259-.435.369-.905.693-1.422.96s-1.081.471-1.692.604a9.737 9.737 0 0 1-2.062.203zM135.893 7.752h11.804v3.32H139.3v3.44h7.392v3.32H139.3v3.561h8.508v3.32h-11.916V7.753z"/></symbol><symbol id="icon-CARDANO" viewBox="0 0 155 32"><path fill="#d9d9d9" style="fill:var(--color1, #d9d9d9)" d="M9.254 15.879c-.072 1.29.885 2.392 2.144 2.466h.125c1.259 0 2.276-1.048 2.276-2.332 0-1.29-1.023-2.332-2.276-2.332-1.207 0-2.203.968-2.269 2.197zM.775 15.288c-.407-.02-.754.296-.774.712s.289.773.695.793a.74.74 0 0 0 .774-.706.753.753 0 0 0-.695-.8zM9.11 2.347c.361-.188.505-.645.321-1.015s-.63-.517-.99-.329a.757.757 0 0 0-.321 1.008.726.726 0 0 0 .99.336zM11.425 6.473c.557-.289.787-.988.505-1.566a1.128 1.128 0 0 0-1.528-.517c-.557.289-.787.988-.505 1.566s.964.806 1.528.517zM3.654 9.308a.926.926 0 0 0 1.298-.275.977.977 0 0 0-.269-1.33.926.926 0 0 0-1.298.276.976.976 0 0 0 .269 1.33zM5.037 14.865a1.15 1.15 0 0 0-1.2 1.095 1.16 1.16 0 0 0 1.069 1.23c.623.034 1.161-.457 1.2-1.095.033-.645-.446-1.196-1.069-1.23zM3.778 22.693a.971.971 0 0 0-.413 1.29.926.926 0 0 0 1.259.423.971.971 0 0 0 .413-1.29.928.928 0 0 0-1.259-.423zM8.192 12.459a1.315 1.315 0 0 0 1.849-.396 1.387 1.387 0 0 0-.387-1.895 1.315 1.315 0 0 0-1.849.396c-.4.625-.23 1.472.387 1.895 0-.007 0-.007 0 0zM22.212 6.378a1.12 1.12 0 0 0 1.574-.343 1.181 1.181 0 0 0-.334-1.613 1.123 1.123 0 0 0-1.574.336c-.341.544-.197 1.27.334 1.619-.007 0-.007 0 0 0zM24.54 2.266c.341.228.794.134 1.017-.215s.131-.813-.21-1.041c-.341-.228-.794-.134-1.017.215s-.125.813.21 1.041zM22.39 13.662c-1.253-.074-2.328.907-2.4 2.197-.072 1.283.885 2.385 2.144 2.459h.131c1.259 0 2.276-1.048 2.276-2.332 0-.571-.203-1.122-.577-1.552a2.231 2.231 0 0 0-1.574-.773zM12.172 12.291a2.273 2.273 0 0 0 2.033 1.283c1.259 0 2.276-1.041 2.276-2.332 0-.37-.085-.726-.243-1.055a2.268 2.268 0 0 0-2.033-1.277c-1.259 0-2.276 1.048-2.276 2.338 0 .363.079.719.243 1.041zM30.01 9.308a.971.971 0 0 0 .413-1.29.926.926 0 0 0-1.259-.423.97.97 0 0 0-.413 1.29c.236.47.8.658 1.259.423zM24.239 10.047c-.662.343-.925 1.162-.59 1.841s1.135.947 1.797.605a1.381 1.381 0 0 0 .59-1.841 1.327 1.327 0 0 0-1.797-.605c.007 0 .007 0 0 0zM16.809 1.917a.95.95 0 0 0 .99-.9c.026-.531-.367-.981-.879-1.015s-.957.376-.99.9a.95.95 0 0 0 .879 1.015zM16.795 7.951a1.349 1.349 0 0 0 1.41-1.29c.039-.759-.525-1.404-1.259-1.445s-1.37.538-1.41 1.29c-.039.759.525 1.404 1.259 1.445zM9.549 21.947c.662-.343.925-1.162.59-1.841s-1.135-.947-1.797-.605a1.382 1.382 0 0 0-.59 1.841 1.324 1.324 0 0 0 1.797.605zM17.661 9.953c-.689 1.075-.393 2.52.656 3.225s2.459.403 3.148-.672.393-2.52-.656-3.225a2.217 2.217 0 0 0-1.246-.383c-.761 0-1.482.396-1.902 1.055zM21.622 19.703c-.564-1.149-1.934-1.613-3.056-1.035s-1.574 1.982-1.01 3.131a2.273 2.273 0 0 0 2.033 1.283 2.18 2.18 0 0 0 1.023-.255c1.121-.578 1.567-1.975 1.01-3.124zM25.596 19.541a1.319 1.319 0 0 0-1.856.396 1.39 1.39 0 0 0 .387 1.902 1.318 1.318 0 0 0 1.856-.396c.4-.638.23-1.485-.387-1.902zM29.951 16.041c.033-.645-.446-1.189-1.069-1.23s-1.161.457-1.2 1.095c-.033.638.446 1.189 1.069 1.23a1.147 1.147 0 0 0 1.2-1.095zM33.098 15.207c-.407-.027-.754.296-.78.712s.288.773.695.8c.407.027.754-.296.781-.712s-.289-.773-.695-.8zM30.134 22.686c-.433-.289-1.01-.168-1.298.276s-.164 1.035.269 1.33c.433.289 1.01.168 1.298-.276s.164-1.035-.269-1.33zM9.247 29.728c-.341-.228-.793-.134-1.016.215s-.131.813.21 1.042.793.134 1.016-.215a.762.762 0 0 0-.21-1.042zM24.678 29.654a.766.766 0 0 0-.328 1.015.73.73 0 0 0 .99.336c.361-.188.512-.638.328-1.015s-.63-.524-.99-.336c0-.007 0-.007 0 0zM16.127 22.041c.689-1.075.393-2.52-.656-3.225s-2.459-.403-3.148.672c-.689 1.075-.393 2.52.656 3.225.367.249.8.383 1.246.383.767 0 1.482-.396 1.902-1.055zM11.575 25.616c-.525-.349-1.233-.202-1.574.336s-.197 1.263.328 1.613 1.226.202 1.574-.336a1.174 1.174 0 0 0-.328-1.613zM16.887 30.084a.95.95 0 0 0-.99.9.958.958 0 0 0 .879 1.015.95.95 0 0 0 .99-.9c.026-.531-.367-.988-.879-1.015zM16.894 24.043c-.734-.047-1.37.531-1.417 1.283s.518 1.404 1.253 1.451c.734.047 1.371-.531 1.417-1.283v-.007a1.356 1.356 0 0 0-1.253-1.445zM22.37 25.528a1.176 1.176 0 0 0-.498 1.566c.282.571.971.806 1.528.511.557-.289.787-.994.498-1.566-.289-.578-.971-.806-1.528-.511zM47.48 10.491c2.203 0 3.744 1.243 3.744 3.548h2.886c0-4.038-2.912-5.987-6.676-5.987-4.63 0-7.319 2.573-7.319 8.016 0 5.577 2.689 8.016 7.319 8.016 3.81 0 6.676-1.895 6.676-5.94h-2.774c0 2.258-1.521 3.501-3.856 3.501-3.063 0-4.479-1.74-4.479-5.349v-.45c.007-3.548 1.436-5.355 4.479-5.355zM61.743 8.32l-5.889 15.494h2.912l1.213-3.366h6.912l1.246 3.366h3.043L65.291 8.326h-3.548v-.007zm-.885 9.683 1.541-4.247c.308-.833.859-2.641.971-2.956h.112c.111.316.662 2.143.971 2.956l1.541 4.247h-5.135zM86.912 13.017c0-2.869-1.607-4.697-4.938-4.697h-7.981v15.488h2.82v-5.987h4.695l2.859 5.987h3.082l-3.233-6.437c1.79-.719 2.695-2.251 2.695-4.354zm-5.161 2.372h-4.938v-4.603h4.938c1.521 0 2.315.833 2.315 2.238 0 1.465-.859 2.365-2.315 2.365zM96.808 8.32h-6.04v15.488h6.04c4.558 0 7.338-2.439 7.338-7.747s-2.781-7.741-7.338-7.741zm4.453 7.969c-.02 3.387-1.587 5.059-4.453 5.059h-3.22V10.779h3.22c2.859 0 4.453 1.673 4.453 5.06v.45zM111.53 8.32l-5.889 15.488h2.912l1.213-3.366h6.919l1.233 3.366h3.043L115.079 8.32h-3.548zm-.878 9.683 1.541-4.247c.308-.833.859-2.641.971-2.956h.111c.112.316.662 2.143.971 2.956l1.541 4.247h-5.135zM133.86 17.532c0 .296.046 1.082.046 1.216l-.112.047c-.066-.087-.505-.88-.748-1.243l-6.564-9.239h-2.695v15.488h2.708v-9.279c0-.383-.046-1.129-.046-1.243l.112-.067c.066.087.393.746.748 1.263l6.61 9.326h2.643V8.313h-2.708l.007 9.219zM147.802 8.052c-4.735 0-7.6 2.573-7.6 8.016s2.859 8.016 7.6 8.016 7.627-2.573 7.627-8.016-2.892-8.016-7.627-8.016zm4.734 8.264c0 3.548-1.652 5.328-4.735 5.328-3.063 0-4.715-1.781-4.715-5.328v-.477c0-3.548 1.672-5.348 4.715-5.348 3.063 0 4.735 1.807 4.735 5.348v.477z"/></symbol><symbol id="icon-TETHER" viewBox="0 0 114 32"><path fill="#d9d9d9" style="fill:var(--color1, #d9d9d9)" d="M17.263 14.148V16.8c-.112.011-.7.06-1.886.06-.988 0-1.699-.044-1.95-.06v-2.658c-3.808.17-6.65.855-6.65 1.666 0 .817 2.842 1.496 6.65 1.666.246.011.94.044 1.928.044 1.239 0 1.795-.033 1.901-.044 3.798-.175 6.634-.855 6.634-1.666.005-.811-2.831-1.49-6.629-1.66z"/><path fill="#d9d9d9" style="fill:var(--color1, #d9d9d9)" d="M15.597 0C6.981 0 0 7.162 0 16s6.981 16 15.597 16 15.597-7.162 15.597-16S24.213 0 15.597 0zm1.666 18.126v7.622h-3.835v-7.622c-4.311-.208-7.553-1.079-7.553-2.131s3.242-1.923 7.553-2.126v-2.378H8.124V7.869h14.438v3.622h-5.304v2.378c4.305.203 7.537 1.079 7.537 2.126.005 1.058-3.226 1.929-7.531 2.131zM44.04 9.211v3.973h3.638v2.981h-3.664v6.044c0 1.337.694 1.984 1.709 1.984.508 0 1.095-.17 1.576-.427l.908 2.948a7.038 7.038 0 0 1-2.697.597c-2.858.115-4.733-1.616-4.733-5.107V16.16H38.32v-2.981h2.457v-3.6l3.264-.367zm62.697 3.786.24 1.617c1.015-1.732 2.382-1.984 3.718-1.984 1.362 0 2.671.564 3.392 1.332l-1.469 3.008c-.668-.597-1.282-.91-2.35-.91-1.709 0-3.29.964-3.29 3.545v7.375h-3.264V12.991l3.023.005zm-7.991 5.365c-.214-1.814-1.549-2.723-3.424-2.723-1.763 0-3.21.91-3.691 2.723h7.115zm-7.168 2.86c.214 1.731 1.629 2.981 3.931 2.981 1.202 0 2.777-.482 3.531-1.304l2.083 2.186c-1.389 1.529-3.664 2.268-5.667 2.268-4.546 0-7.248-2.981-7.248-7.463 0-4.258 2.729-7.321 7.008-7.321 4.412 0 7.168 2.893 6.655 8.652H91.578zM77.199 7.123v7.77c1.175-1.616 2.617-2.099 4.118-2.099 3.744 0 5.4 2.696 5.4 6.811v7.375h-3.264v-7.348c0-2.553-1.255-3.633-2.997-3.633-1.928 0-3.264 1.731-3.264 3.83v7.151h-3.258V7.128l3.264-.005zm-8.658 1.929v3.973h3.638v2.981h-3.664v6.044c0 1.337.694 1.984 1.709 1.984.508 0 1.095-.17 1.576-.427l.908 2.948a7.038 7.038 0 0 1-2.697.597c-2.858.115-4.733-1.616-4.733-5.107v-6.044h-2.457V13.02h2.457v-3.6l3.264-.367zm-9.011 9.31c-.214-1.814-1.549-2.723-3.424-2.723-1.763 0-3.21.91-3.691 2.723h7.115zm-7.163 2.86c.214 1.731 1.629 2.981 3.931 2.981 1.202 0 2.778-.482 3.531-1.304l2.083 2.186c-1.389 1.529-3.664 2.268-5.667 2.268-4.546 0-7.248-2.981-7.248-7.463 0-4.258 2.729-7.321 7.003-7.321 4.412 0 7.163 2.893 6.655 8.652H52.367z"/></symbol><symbol id="icon-RIPPLE" viewBox="0 0 109 32"><path fill="#d9d9d9" style="fill:var(--color1, #d9d9d9)" d="M39.839 12.09c-.29-.105-.902-.155-1.514-.155-1.841 0-3.796 1.508-3.796 3.377V24.2H30.36V8.333h4.034v1.593c.939-1.177 2.639-1.924 4.527-1.924.612 0 .97.07 1.416.14-.005 0-.498 3.948-.498 3.948zM44.568 0c1.514 0 2.722 1.177 2.722 2.721s-1.224 2.721-2.722 2.721c-1.499 0-2.722-1.177-2.722-2.721S43.054 0 44.568 0zm2.074 24.164h-4.169V8.332h4.169v15.832zM58.963 8.001c-1.768 0-3.334.591-4.563 1.593V8.316h-4.013v23.683h4.169v-8.958a6.484 6.484 0 0 0 4.169 1.438c2.313 0 4.527-1.037 5.906-2.685 1.224-1.438 1.955-3.397 1.955-5.561.021-4.644-3.386-8.232-7.622-8.232zm-.493 12.651c-2.587 0-4.288-1.819-4.288-4.364s1.701-4.364 4.288-4.364c2.214 0 3.998 1.959 3.998 4.364s-1.784 4.364-3.998 4.364zm33.456 3.512h-4.169V.972h4.169v23.192zm17.018-2.51c-1.514 1.839-3.982 2.841-6.383 2.841-4.646 0-8.151-3.272-8.151-8.227 0-4.419 2.961-8.262 7.571-8.262 4.309 0 7.353 3.687 7.353 8.106 0 .431-.031.847-.099 1.213H98.444c.218 2.219 1.991 3.758 4.205 3.758 1.768 0 3.184-1.007 3.915-1.839l2.38 2.41zm-3.878-7.45c-.135-1.403-1.374-2.771-3.08-2.771-1.737 0-3.148 1.333-3.334 2.771h6.414zM77.651 8.001c-1.773 0-3.339.591-4.563 1.593V8.316h-4.019v23.683h4.169v-8.958a6.484 6.484 0 0 0 4.169 1.438c2.313 0 4.527-1.037 5.906-2.685 1.224-1.438 1.96-3.397 1.96-5.561.015-4.644-3.386-8.232-7.623-8.232zm-.514 12.651c-2.587 0-4.288-1.819-4.288-4.364s1.701-4.364 4.288-4.364c2.214 0 3.998 1.959 3.998 4.364.021 2.405-1.784 4.364-3.998 4.364zM21.779 18.397c-.939-.556-2.007-.711-3.044-.747-.887-.035-2.193-.606-2.193-2.235 0-1.212.97-2.199 2.193-2.235 1.058-.035 2.111-.19 3.049-.747 1.716-1.007 2.774-2.876 2.774-4.905S23.5 3.63 21.784 2.623a5.525 5.525 0 0 0-5.564 0c-1.737.987-2.79 2.861-2.79 4.885 0 1.092.389 2.114.866 3.051.41.782.612 2.25-.799 3.081-1.058.621-2.364.225-3.013-.832-.544-.902-1.224-1.749-2.162-2.285a5.525 5.525 0 0 0-5.564 0c-1.701.987-2.759 2.861-2.759 4.885s1.058 3.898 2.79 4.905a5.501 5.501 0 0 0 5.564 0c.939-.556 1.597-1.388 2.162-2.285.456-.747 1.582-1.678 3.013-.847 1.058.621 1.379 1.974.783 3.081-.493.937-.871 1.939-.871 3.051 0 2.029 1.058 3.898 2.774 4.905s3.842 1.007 5.564 0c1.721-1.007 2.774-2.876 2.774-4.905s-1.053-3.898-2.774-4.92z"/></symbol><symbol id="icon-ETHEREUM" viewBox="0 0 125 32"><path fill="#d9d9d9" style="fill:var(--color1, #d9d9d9)" opacity=".8" d="M35.35 18.41a.418.418 0 0 1-.418.417h-7.65c.198 1.941 1.617 3.713 3.624 3.713 1.376 0 2.393-.532 3.153-1.656.08-.115.198-.203.337-.203.219 0 .38.165.38.389a.384.384 0 0 1-.059.203c-.771 1.371-2.313 2.046-3.812 2.046-2.575 0-4.422-2.364-4.422-4.881 0-2.534 1.836-4.886 4.422-4.886 2.575 0 4.433 2.342 4.443 4.859zm-.82-.362c-.161-1.941-1.617-3.713-3.63-3.713-2.008 0-3.426 1.771-3.624 3.713h7.254zm10.124-4.305c.219 0 .38.203.38.389a.373.373 0 0 1-.38.389h-2.056v8.265a.386.386 0 0 1-.38.389.392.392 0 0 1-.38-.389v-8.265h-1.975a.374.374 0 0 1-.38-.367v-.022a.39.39 0 0 1 .38-.389h1.975v-3.016c0-.203.15-.389.348-.411a.383.383 0 0 1 .428.389v3.038h2.04zm12.533 3.993v5.007a.396.396 0 0 1-.38.389.374.374 0 0 1-.38-.367v-5.029c0-1.689-.937-3.373-2.773-3.373-2.356 0-3.373 2.106-3.234 4.272 0 .06.021.307.021.346v3.746c0 .203-.15.389-.348.417a.378.378 0 0 1-.423-.334c0-.022-.005-.038-.005-.06V6.303c0-.203.161-.389.38-.389s.38.203.38.389v9.296c.658-1.207 1.836-2.024 3.207-2.024 2.27.005 3.555 2.024 3.555 4.162zm13.748.674a.42.42 0 0 1-.418.417h-7.656c.198 1.941 1.617 3.713 3.63 3.713 1.37 0 2.388-.532 3.153-1.656.08-.115.198-.203.337-.203.219 0 .38.165.38.389a.393.393 0 0 1-.059.203c-.771 1.371-2.313 2.046-3.812 2.046-2.575 0-4.422-2.364-4.422-4.881 0-2.534 1.836-4.886 4.422-4.886 2.559 0 4.433 2.342 4.443 4.859zm-.83-.362c-.161-1.941-1.617-3.713-3.63-3.713-2.008 0-3.426 1.771-3.624 3.713h7.254zm10.241-3.943c0 .247-.139.389-.359.428-2.248.345-3.266 2.221-3.266 4.409v3.751c0 .203-.15.389-.348.417a.378.378 0 0 1-.423-.335c0-.022-.005-.038-.005-.06v-8.55c0-.203.15-.389.348-.417a.383.383 0 0 1 .428.389v1.738c.637-1.102 1.895-2.139 3.212-2.139.193.005.412.148.412.367zm12.581 4.305a.42.42 0 0 1-.418.417h-7.661c.198 1.941 1.617 3.713 3.63 3.713 1.37 0 2.388-.532 3.153-1.656.08-.115.198-.203.337-.203.219 0 .38.165.38.389a.384.384 0 0 1-.059.203c-.771 1.371-2.307 2.046-3.812 2.046-2.575 0-4.422-2.364-4.422-4.881 0-2.534 1.836-4.886 4.422-4.886 2.575 0 4.438 2.342 4.449 4.859zm-.819-.362c-.161-1.941-1.617-3.713-3.624-3.713s-3.432 1.771-3.63 3.713h7.254zm13.196-3.844v8.588a.396.396 0 0 1-.38.389.375.375 0 0 1-.38-.373v-1.656c-.632 1.289-1.751 2.221-3.185 2.221-2.275 0-3.533-2.024-3.533-4.163v-5.029c0-.203.161-.389.38-.389s.38.203.38.389v5.029c0 1.689.932 3.373 2.768 3.373 2.575 0 3.185-2.473 3.185-5.205V14.17c0-.236.241-.472.519-.367a.44.44 0 0 1 .246.4zm19.386 3.499v5.023a.397.397 0 0 1-.38.389.376.376 0 0 1-.381-.373v-5.045c0-1.695-.937-3.345-2.773-3.345-2.307 0-3.186 2.534-3.186 4.492v3.877a.396.396 0 0 1-.38.389.376.376 0 0 1-.381-.373v-5.046c0-1.695-.937-3.345-2.773-3.345-2.334 0-3.293 1.881-3.207 4.387 0 .06.021.165 0 .203v3.773c0 .203-.15.389-.348.417a.379.379 0 0 1-.424-.335c0-.022-.006-.038-.006-.06v-8.577c0-.203.15-.389.349-.417a.382.382 0 0 1 .428.389v1.431c.659-1.207 1.836-1.996 3.207-1.996 1.558 0 2.773 1.02 3.266 2.495.637-1.464 1.868-2.495 3.453-2.495 2.253.011 3.533 2.007 3.533 4.141zM9.583 11.84 0 16.299l9.583 5.808 9.594-5.808-9.594-4.459z"/><path fill="#d9d9d9" style="fill:var(--color1, #d9d9d9)" opacity=".8" d="m0 16.299 9.583 5.808V0L0 16.299zM9.583 0v22.107l9.594-5.808L9.583 0zM0 18.163 9.583 32v-8.04L0 18.163zM9.583 23.96V32l9.594-13.837-9.594 5.797z"/></symbol><symbol id="icon-LITECOIN" viewBox="0 0 123 32"><path fill="#d9d9d9" style="fill:var(--color1, #d9d9d9)" d="M17.268 0C7.733 0 0 7.165 0 16s7.733 16 17.268 16 17.268-7.165 17.268-16S26.808 0 17.268 0zm.277 16.528-1.797 5.616h9.609c.272 0 .491.208.491.46a.33.33 0 0 1-.021.126l-.836 2.667a.663.663 0 0 1-.637.441H9.688l2.482-7.765-2.743.775.606-1.815 2.748-.775 3.485-10.907a.649.649 0 0 1 .632-.445h3.72c.272 0 .491.203.496.455a.348.348 0 0 1-.021.126l-2.926 9.222 2.743-.775-.59 1.845-2.774.75zM44.521 4.856h-1.076c-.188-.01-.35.121-.36.295v.005l-2.764 20.386c-.021.194.047.3.267.3h1.071c.178.024.34-.087.366-.252 0-.015.005-.034.005-.048l2.801-20.376c.031-.223-.094-.31-.308-.31zm5.611 5.877h-1.071a.33.33 0 0 0-.366.276v.019l-1.996 14.514c-.021.199.105.3.303.3h1.071c.183.029.355-.087.381-.257 0-.015.005-.029.005-.044l1.97-14.504c.005-.198-.068-.305-.298-.305zm46.93-.237c-2.847-.058-5.361 1.723-6.045 4.284a27.617 27.617 0 0 0-.664 3.505 28.214 28.214 0 0 0-.298 3.51c-.026 1.157.455 2.275 1.332 3.098.867.775 2.059 1.162 3.574 1.162a6.426 6.426 0 0 0 3.84-1.162c1.082-.775 1.85-1.864 2.174-3.098.303-1.152.522-2.324.664-3.505.172-1.172.266-2.353.298-3.539.057-1.157-.423-2.285-1.317-3.098a5.227 5.227 0 0 0-3.558-1.157zm3.02 6.38c-.068.47-.125.939-.183 1.409-.199 1.496-.381 2.571-.533 3.21a4.044 4.044 0 0 1-1.531 2.324 4.431 4.431 0 0 1-2.707.867c-1.745.106-3.255-1.113-3.37-2.73a2.26 2.26 0 0 1 0-.368c.011-.62.057-1.244.146-1.859.104-.736.167-1.205.183-1.409.204-1.438.381-2.508.533-3.205.209-.915.752-1.733 1.536-2.324a4.42 4.42 0 0 1 2.706-.867c1.745-.107 3.25 1.118 3.365 2.735.011.121.011.242 0 .358-.01.625-.057 1.244-.146 1.859zm7.967-6.143h-1.066c-.188-.01-.355.121-.366.295l-2.001 14.514c-.031.208.099.3.298.3h1.071c.188.015.35-.116.366-.286v-.01l1.97-14.514c.026-.194-.063-.3-.272-.3zm13.512.857c-.737-.712-1.766-1.065-3.104-1.065a6.077 6.077 0 0 0-2.403.465 4.817 4.817 0 0 0-1.87 1.394c-.089.077-.136.058-.136-.063l.167-1.288c.026-.179-.063-.295-.267-.295h-1.066c-.188-.015-.35.116-.366.286v.01l-1.97 14.514c-.026.189.047.3.267.3h1.071c.188.015.355-.116.366-.291v-.01l1.432-10.399a4.196 4.196 0 0 1 1.468-2.324 4.112 4.112 0 0 1 2.644-.891 3.083 3.083 0 0 1 2.257.842c.585.61.888 1.414.836 2.232a3.98 3.98 0 0 1-.037.663l-1.364 9.881a.22.22 0 0 0 .052.208.334.334 0 0 0 .251.092h1.066c.188.015.35-.116.366-.286v-.01l1.369-10.128c.047-.387.068-.702.068-.896.073-1.089-.324-2.14-1.097-2.943zM50.838 4.865c-.627-.339-1.437-.14-1.803.445-.366.581-.152 1.331.481 1.67a.406.406 0 0 0 .084.039c.653.295 1.442.048 1.761-.557.303-.581.078-1.273-.523-1.598zm57.979 0c-.632-.329-1.437-.121-1.792.465s-.131 1.331.502 1.661l.068.034c.653.295 1.442.044 1.761-.562.303-.581.068-1.283-.538-1.598zm-25.711 5.631a6.429 6.429 0 0 0-3.872 1.186c-1.082.775-1.844 1.869-2.168 3.098a29.707 29.707 0 0 0-.669 3.505 30.272 30.272 0 0 0-.303 3.51c-.031 1.157.455 2.28 1.338 3.098.867.775 2.059 1.162 3.569 1.162a6.426 6.426 0 0 0 3.84-1.162c1.087-.77 1.85-1.864 2.168-3.098l.089-.329c.021-.073-.031-.15-.11-.165-.01-.005-.026-.005-.037-.005h-1.317a.206.206 0 0 0-.204.14v.058c-.209.915-.752 1.733-1.536 2.324a4.416 4.416 0 0 1-2.701.867c-1.745.106-3.255-1.113-3.37-2.73a2.056 2.056 0 0 1 0-.368c.01-.62.057-1.244.146-1.859.063-.47.125-.939.183-1.409.204-1.438.376-2.508.533-3.205.199-.92.737-1.743 1.515-2.338a4.448 4.448 0 0 1 2.701-.867c1.745-.111 3.255 1.113 3.37 2.73.01.121.01.247 0 .368v.019c-.005.126.099.232.24.237h1.265a.187.187 0 0 0 .199-.169v-.358c.057-1.162-.423-2.285-1.322-3.098-.972-.804-2.247-1.215-3.548-1.143zm-10.779 1.166c-.972-.808-2.252-1.225-3.553-1.162-2.847-.058-5.361 1.723-6.045 4.284a27.785 27.785 0 0 0-.664 3.505 21.973 21.973 0 0 0-.303 3.51c-.026 1.157.455 2.275 1.332 3.098.867.775 2.059 1.162 3.569 1.162a6.426 6.426 0 0 0 3.84-1.162c1.087-.77 1.855-1.864 2.173-3.098l.089-.329c.021-.073-.026-.15-.11-.169-.011-.005-.026-.005-.037-.005h-1.327a.21.21 0 0 0-.204.145v.058a4.028 4.028 0 0 1-1.536 2.324 4.401 4.401 0 0 1-2.717.842c-1.745.107-3.25-1.118-3.37-2.735a2.2 2.2 0 0 1 0-.363c.005-.542.047-1.084.12-1.622l9.645-2.764a.374.374 0 0 0 .308-.358c.057-.465.094-1.249.105-2.057.037-1.157-.439-2.275-1.317-3.103zm-.381 4.178c0 .087-.068.165-.157.189l-7.994 2.29v-.034c.199-1.438.381-2.508.533-3.205.209-.915.752-1.733 1.531-2.324a4.463 4.463 0 0 1 2.707-.867 3.429 3.429 0 0 1 2.445.881c.987.896.993 1.854.935 3.069zm-13.83 8.4a.27.27 0 0 1 .35.097.207.207 0 0 1 .031.136l-.131 1.002a.376.376 0 0 1-.246.29 5.016 5.016 0 0 1-3.344.044c-1.223-.518-1.536-1.636-1.358-3.035l1.411-10.631.199-1.53.465-3.384c.005-.169.157-.305.345-.3h1.061c.246 0 .298.126.266.3l-.637 4.798h3.344c.193 0 .282.107.266.295l-.094.687a.332.332 0 0 1-.099.232.465.465 0 0 1-.266.068h-3.344l-1.17 8.719c-.12.939-.256 1.782.261 2.246.7.552 2.006.261 2.691-.034z"/></symbol><symbol id="icon-BITCOIN" viewBox="0 0 150 32"><path fill="#d9d9d9" style="fill:var(--color1, #d9d9d9)" d="M19.43.479C11.046-1.659 2.562 3.562.468 12.13c-2.088 8.568 3.009 17.249 11.393 19.387s16.875-3.083 18.969-11.651c2.088-8.568-3.016-17.249-11.4-19.387zm3.115 13.235c-.225 1.556-1.067 2.309-2.194 2.572 1.538.824 2.326 2.081 1.577 4.255-.928 2.707-3.128 2.934-6.058 2.366l-.703 2.927-1.717-.44.703-2.87a79.077 79.077 0 0 1-1.365-.362l-.703 2.884-1.717-.44.709-2.913c-.398-.107-.809-.22-1.22-.327l-2.234-.568.855-2.01s1.266.341 1.246.32c.484.128.703-.199.789-.419l1.12-4.596.179.05a.981.981 0 0 0-.179-.057l.802-3.282c.02-.377-.106-.845-.802-1.023.027-.014-1.246-.32-1.246-.32l.457-1.875 2.366.604v.014l1.1.263.703-2.884 1.717.433-.689 2.827c.464.107.928.213 1.379.327l.683-2.806 1.717.433-.702 2.884c2.154.767 3.745 1.911 3.427 4.035z"/><path fill="#d9d9d9" style="fill:var(--color1, #d9d9d9)" d="m14.287 16.186-.948 3.865c1.167.298 4.752 1.471 5.289-.703.55-2.28-3.181-2.863-4.341-3.161zM15.566 10.908l-.855 3.502c.974.249 3.957 1.257 4.441-.725.51-2.067-2.611-2.529-3.586-2.778zM45.862 9.679c1.266 0 2.366.234 3.287.689a6.596 6.596 0 0 1 2.3 1.861c.603.781 1.054 1.705 1.346 2.756.292 1.059.431 2.188.431 3.403 0 1.861-.331 3.623-1.008 5.285a13.884 13.884 0 0 1-2.75 4.334c-2.479 2.586-5.806 4.021-9.266 3.985-.238 0-.656-.007-1.253-.021a17.553 17.553 0 0 1-2.035-.178 24.033 24.033 0 0 1-2.439-.49 11.994 11.994 0 0 1-2.439-.888L38.896.976l6.137-.973-2.452 10.443a9.168 9.168 0 0 1 1.584-.561 6.768 6.768 0 0 1 1.697-.206zm-5.15 17.334c.921 0 1.796-.234 2.612-.689a6.85 6.85 0 0 0 2.121-1.84c.597-.774 1.061-1.641 1.405-2.614s.517-1.996.517-3.034c0-1.293-.212-2.309-.636-3.033-.424-.732-1.2-1.094-2.34-1.094-.371 0-.848.071-1.445.206a3.502 3.502 0 0 0-1.604.852l-2.611 11.089.418.078c.278.057.563.085.848.085h.716v-.007zm18.883 4.412h-5.866l4.951-21.291h5.899l-4.984 21.291zm2.85-23.892c-.822 0-1.558-.249-2.22-.746s-.994-1.257-.994-2.288c0-.568.113-1.101.331-1.598.219-.49.524-.931.895-1.293s.802-.654 1.286-.874a3.89 3.89 0 0 1 1.564-.32c.815 0 1.558.249 2.22.746.656.497.988 1.265.988 2.288 0 .568-.113 1.101-.331 1.606-.219.49-.517.931-.888 1.293a4.32 4.32 0 0 1-1.286.867 3.73 3.73 0 0 1-1.564.32zM69.722 4.827l6.137-.973-1.511 6.273h6.575l-1.186 4.937h-6.535l-1.743 7.445c-.159.625-.252 1.2-.278 1.74s.04 1.009.199 1.399c.172.405.471.732.855.909.404.22.994.327 1.763.327.63 0 1.246-.064 1.843-.185s1.193-.291 1.803-.504l.437 4.618c-.842.313-1.703.568-2.571.767-.928.22-2.022.32-3.288.32-1.816 0-3.234-.277-4.235-.824-1.007-.554-1.717-1.314-2.141-2.273a7.367 7.367 0 0 1-.557-3.296c.053-1.243.239-2.55.557-3.929l3.877-16.752zm10.95 18.094c0-1.833.292-3.566.868-5.186.583-1.62 1.412-3.033 2.499-4.248 1.08-1.215 2.393-2.167 3.937-2.877 1.544-.703 3.268-1.051 5.17-1.051 1.193 0 2.253.114 3.188.348s1.789.533 2.558.909l-2.022 4.703a19.243 19.243 0 0 0-1.644-.59 7.088 7.088 0 0 0-2.075-.263c-1.962 0-3.506.689-4.659 2.06-1.147 1.378-1.723 3.225-1.723 5.548 0 1.378.292 2.493.875 3.339.583.852 1.65 1.279 3.208 1.279a10.72 10.72 0 0 0 4.122-.845l.438 4.817c-.802.313-1.624.583-2.452.796-.901.22-1.969.341-3.208.341-1.637 0-3.022-.249-4.156-.732a7.946 7.946 0 0 1-2.81-1.961 7.463 7.463 0 0 1-1.604-2.899 11.722 11.722 0 0 1-.51-3.488zM106.713 31.993c-1.399 0-2.618-.22-3.645-.654a6.715 6.715 0 0 1-2.558-1.826 7.934 7.934 0 0 1-1.524-2.771 11.214 11.214 0 0 1-.51-3.538c0-1.62.259-3.239.769-4.859s1.273-3.076 2.28-4.376a12.471 12.471 0 0 1 3.678-3.183c1.451-.824 3.115-1.236 4.991-1.236 1.372 0 2.585.22 3.625.654s1.896 1.044 2.572 1.826c.669.781 1.18 1.705 1.524 2.771s.51 2.245.51 3.538c0 1.62-.245 3.239-.749 4.859a14.032 14.032 0 0 1-2.22 4.369 11.626 11.626 0 0 1-3.665 3.176c-1.451.838-3.148 1.25-5.077 1.25zm2.929-17.327c-.868 0-1.637.256-2.293.767-.663.511-1.213 1.165-1.663 1.946a9.837 9.837 0 0 0-1.014 2.572 11.107 11.107 0 0 0-.331 2.65c0 1.35.212 2.401.63 3.161.424.753 1.186 1.13 2.3 1.13.875 0 1.637-.256 2.3-.767a6.551 6.551 0 0 0 1.657-1.947 9.652 9.652 0 0 0 1.014-2.572c.219-.931.331-1.819.331-2.65 0-1.35-.212-2.401-.636-3.161-.418-.753-1.18-1.13-2.293-1.13zm15.178 16.758h-5.866l4.951-21.291h5.906l-4.991 21.291zm2.85-23.891a3.6 3.6 0 0 1-2.214-.746c-.663-.497-.994-1.257-.994-2.288 0-.568.113-1.101.338-1.598a4.221 4.221 0 0 1 2.174-2.167 3.845 3.845 0 0 1 1.564-.32c.822 0 1.558.249 2.22.746s.994 1.265.994 2.288c0 .568-.119 1.101-.338 1.606-.219.49-.517.931-.888 1.293a4.32 4.32 0 0 1-1.286.867 3.762 3.762 0 0 1-1.571.32zM134.033 11.1c.444-.128.941-.291 1.485-.462a21.634 21.634 0 0 1 4.083-.845 24.224 24.224 0 0 1 2.83-.142c3.089 0 5.223.916 6.396 2.756 1.18 1.833 1.379 4.348.616 7.53l-2.697 11.502h-5.899l2.611-11.26c.159-.703.285-1.385.378-2.046a5.11 5.11 0 0 0-.02-1.74 2.107 2.107 0 0 0-.729-1.215c-.391-.313-.974-.469-1.77-.469-.762 0-1.538.085-2.333.249l-3.844 16.474h-5.906l4.799-20.332z"/></symbol><symbol id="icon-ECOPAYZ" viewBox="0 0 128 32"><path fill="#d9d9d9" style="fill:var(--color1, #d9d9d9)" d="M21.086 0C9.432 0 0 6.347 0 14.236c0 3.341 1.708 6.403 4.597 8.872-1.418-2.023-2.229-4.276-2.229-6.682 0-8.161 9.24-14.787 20.611-14.787 7.348 0 13.791 2.741 17.439 6.898C37.153 3.501 29.714 0 21.087 0z"/><path fill="#d9d9d9" style="fill:var(--color1, #d9d9d9)" d="M13.053 12.004c.607-.544 1.365-.816 2.262-.816.877 0 1.629.279 2.249.837.62.551.956 1.262 1.022 2.127h-6.695c.171-.893.554-1.604 1.161-2.148zm7.545 5.412c.864 0 1.55-.195 2.078-.586.607-.432.91-1.06.91-1.883 0-1.521-.462-2.929-1.385-4.227s-2.104-2.274-3.549-2.929c-1.003-.453-2.13-.677-3.364-.677-2.493 0-4.538.872-6.147 2.623-1.603 1.751-2.401 3.857-2.401 6.326 0 2.49.838 4.583 2.513 6.284s3.773 2.546 6.286 2.546c1.339 0 2.632-.202 3.865-.614 1.464-.474 2.539-1.165 3.205-2.064.376-.495.567-.99.567-1.479 0-1.297-.673-1.946-2.012-1.946-.29 0-1.049.272-2.262.816s-2.256.816-3.113.816c-1.029 0-1.899-.258-2.605-.767-.712-.516-1.121-1.255-1.227-2.225l8.64-.014zm5.362 4.897c1.629 1.716 3.786 2.567 6.47 2.567 1.609 0 2.948-.244 4.03-.746 1.497-.704 2.249-1.555 2.249-2.567 0-.6-.191-1.109-.58-1.534-.382-.425-.884-.635-1.504-.635-.422 0-.95.125-1.59.37s-1.332.37-2.078.37c-1.28 0-2.269-.411-2.975-1.234-.613-.746-.923-1.737-.923-2.971 0-1.179.297-2.155.89-2.943.66-.872 1.596-1.304 2.81-1.304.752 0 1.458.133 2.13.384.673.258 1.214.391 1.636.391.64 0 1.167-.209 1.583-.621.422-.412.627-.921.627-1.514 0-1.158-.725-2.023-2.183-2.602-1.075-.412-2.341-.621-3.799-.621-2.777 0-4.999.83-6.668 2.49-1.675 1.66-2.506 3.801-2.506 6.424.007 2.553.798 4.652 2.381 6.298zm19.286-9.186c.653-.879 1.583-1.318 2.777-1.318 1.174 0 2.091.453 2.744 1.353.587.774.877 1.716.877 2.825 0 1.144-.284 2.099-.844 2.853-.66.9-1.583 1.353-2.777 1.353-1.174 0-2.091-.454-2.744-1.353-.587-.774-.884-1.73-.884-2.853 0-1.13.284-2.079.851-2.86zm-3.964 9.144c1.761 1.737 4.01 2.609 6.741 2.609 2.757 0 5.006-.865 6.741-2.581 1.669-1.674 2.506-3.773 2.506-6.291 0-2.532-.844-4.652-2.539-6.354-1.695-1.695-3.931-2.546-6.708-2.546-2.73 0-4.96.851-6.688 2.56s-2.592 3.822-2.592 6.34c0 2.504.844 4.589 2.539 6.263zM124.485 20.492h-5.58l7.499-8.084c.765-.823 1.148-1.514 1.148-2.085 0-.628-.29-1.018-.877-1.186-.58-.167-1.478-.244-2.691-.244h-9.049c-2.401 0-3.601.711-3.601 2.134 0 1.444 1.187 2.169 3.568 2.169h4.854l-7.757 8.412c-.561.607-.838 1.214-.838 1.814 0 .976.989 1.465 2.968 1.465h10.309c2.374 0 3.562-.718 3.562-2.169.007-1.486-1.167-2.225-3.515-2.225zM64.208 21.204v-3.899h3.548c2.493 0 4.452-.677 5.89-2.037 1.431-1.353 2.15-3.264 2.15-5.726 0-2.483-.791-4.415-2.374-5.789-1.497-1.318-3.529-1.974-6.081-1.974h-4.749c-1.372 0-2.322.272-2.849.809-.528.544-.791 1.493-.791 2.846V21.19c0 2.462.877 3.69 2.632 3.69 1.748.007 2.625-1.221 2.625-3.676zm0-14.634h2.282c2.407 0 3.608.99 3.608 2.971 0 2.023-1.2 3.034-3.608 3.034h-2.282V6.57zM90.944 25.018c1.754 0 2.638-1.242 2.638-3.718V11.068c0-2.455-.877-3.683-2.638-3.683-1.075 0-1.919.537-2.539 1.604-1.069-1.214-2.5-1.827-4.281-1.827-2.434 0-4.445.942-6.028 2.832-1.484 1.758-2.236 3.822-2.236 6.194 0 2.343.712 4.387 2.144 6.131 1.557 1.89 3.535 2.832 5.929 2.832 1.886 0 3.377-.642 4.478-1.918.528 1.186 1.372 1.786 2.533 1.786zm-8.726-11.697c.633-.858 1.497-1.29 2.592-1.29 1.115 0 1.979.425 2.585 1.29.521.753.785 1.688.785 2.797s-.264 2.058-.785 2.832c-.613.879-1.477 1.318-2.585 1.318-1.115 0-1.992-.439-2.625-1.318-.547-.774-.818-1.723-.818-2.832 0-1.088.284-2.023.851-2.797zm23.717-3.927-3.265 8.112-3.027-7.672c-.33-.858-.627-1.437-.891-1.73-.435-.481-1.042-.725-1.814-.725-.745 0-1.365.244-1.86.725s-.739 1.081-.739 1.793c0 .502.099.976.297 1.416l5.369 11.976-2.19 4.555c-.29.649-.442 1.221-.442 1.723 0 .746.244 1.346.725 1.779.482.439 1.121.656 1.913.656.943 0 1.721-.684 2.341-2.044l8.132-18.393c.284-.649.429-1.235.429-1.758 0-1.611-.877-2.42-2.632-2.42-1.022-.007-1.801.67-2.348 2.009z"/></symbol><symbol id="icon-PAYSAFE" viewBox="0 0 181 32"><path fill="#d9d9d9" style="fill:var(--color1, #d9d9d9)" d="M32.662 14.292c-.022-.655-.318-.993-.896-1.016h-3.078c-.73.045-1.106.459-1.12 1.242v5.757c.014.805.434 1.219 1.243 1.242h2.818a.905.905 0 0 0 .73-.346.84.84 0 0 0 .296-.67v-6.209h.007zm-9.032-.821c.022-1.445.325-2.536.925-3.289a3.843 3.843 0 0 1 1.178-.79c.499-.233.976-.346 1.438-.346h5.644c2.493.023 3.758 1.437 3.794 4.26v8.67c-.022 1.001-.397 1.866-1.12 2.597-.723.76-1.582 1.151-2.58 1.174h-5.34v6.254h-3.938V13.472zM43.74 20.689c0 .241.108.429.318.572.188.173.419.263.715.263h3.035c.686 0 1.041-.278 1.062-.835v-1.182c0-.647-.361-.971-1.091-.971h-3.006c-.397 0-.672.068-.824.196-.137.151-.21.451-.21.903v1.054zm5.123-6.503c.022-.632-.333-.933-1.062-.911h-7.949V9.053h8.953c2.609.045 3.931 1.355 3.974 3.951v8.835c-.022 1.114-.354 2.039-.99 2.769-.665.76-1.525 1.144-2.58 1.144h-5.412c-2.638-.023-3.967-1.28-4.011-3.763V18.58c.022-2.604 1.293-3.921 3.823-3.966h5.254v-.429zM63.872 27.77c.311-.023.585-.135.802-.346.21-.196.318-.422.318-.677v-1.001h-5.058c-.658 0-1.185-.09-1.583-.263-.419-.158-.831-.452-1.243-.873a4.208 4.208 0 0 1-.853-1.4c-.181-.444-.267-1.008-.267-1.693V9.047h3.946v11.131c0 .896.347 1.34 1.055 1.34h2.789c.332 0 .621-.113.86-.346.231-.196.347-.429.347-.7V9.048h3.917v18.401c-.022 1.362-.354 2.454-1.004 3.281-.658.828-1.554 1.249-2.695 1.272H55.99V27.78h7.884zM72.009 21.524h7.038c.643-.023.976-.294.997-.805v-.376a.793.793 0 0 0-.094-.361c-.159-.316-.347-.474-.578-.474h-3.49a3.827 3.827 0 0 1-2.659-1.106c-.752-.662-1.134-1.475-1.156-2.431v-3.153c.043-2.461 1.322-3.71 3.851-3.755h8.158v4.222h-6.915c-.809 0-1.221.256-1.221.775v.406c0 .534.419.805 1.25.805h3.476c.925.023 1.72.391 2.377 1.114a3.823 3.823 0 0 1 1.033 2.589v3.078c-.022.866-.405 1.731-1.149 2.589-.361.421-.73.715-1.098.881-.383.15-.903.226-1.561.226h-8.26v-4.222zM90.826 20.689c0 .241.109.429.318.572.181.173.419.263.715.263h3.035c.686 0 1.04-.278 1.062-.835v-1.182c0-.647-.369-.971-1.091-.971h-3.006c-.398 0-.665.068-.817.196-.137.151-.217.451-.217.903v1.054zm5.13-6.503c.014-.632-.34-.933-1.07-.911h-7.949V9.053h8.953c2.601.045 3.931 1.355 3.967 3.951v8.835c-.022 1.114-.354 2.039-.99 2.769-.665.76-1.525 1.144-2.58 1.144h-5.42c-2.63-.023-3.967-1.28-4.003-3.763V18.58c.014-2.604 1.294-3.921 3.823-3.966h5.254v-.429zM103.074 6.653c.022-1.144.426-2.055 1.221-2.739.766-.7 1.778-1.054 3.021-1.076h2.507v4.079h-1.518c-.831.023-1.257.436-1.279 1.242v.896h2.796v4.23h-2.796v12.47h-3.953V6.654zM121.053 14.111v-.098a.689.689 0 0 0-.253-.542c-.181-.135-.412-.196-.679-.196h-2.746c-.354 0-.636.105-.86.316-.275.196-.412.452-.412.768v1.693l4.95-1.942zm-4.892 5.968v.263c0 .339.087.61.253.798.123.248.289.376.513.376h8.108v4.222h-8.621c-.787 0-1.402-.075-1.835-.233a3.373 3.373 0 0 1-1.272-.798c-.434-.444-.73-.903-.882-1.37-.166-.489-.246-1.136-.246-1.942l-.036-8.452c.043-2.551 1.322-3.853 3.844-3.898h5.326c2.457.045 3.707 1.392 3.743 4.041v3.341l-8.895 3.65zM133.424 25.746c-.6 0-1.142-.06-1.64-.166-.52-.09-1.033-.339-1.561-.76-.542-.489-.918-1.046-1.12-1.648-.217-.602-.325-1.279-.325-2.039v-7.887c-.022-.64.036-1.204.181-1.693.13-.489.412-.963.831-1.437.484-.489.968-.82 1.489-.978a6.807 6.807 0 0 1 1.691-.196h6.048v.986h-5.911c-1.041 0-1.864.226-2.464.67-.614.489-.925 1.325-.925 2.514v7.887c0 .557.08 1.099.246 1.618.166.512.441.963.838 1.355.434.339.86.549 1.279.64.434.098.903.151 1.395.151h5.644v.986h-5.694zM154.589 15.518h-7.934c-.947.023-1.691.331-2.233.918-.556.602-.831 1.422-.831 2.461v2.514c0 .489.05.933.152 1.332.101.421.347.798.744 1.121.686.595 1.445.88 2.276.88h4.805c2.008-.023 3.02-1.121 3.02-3.311v-5.915zm.94 5.682c0 .632-.044 1.189-.123 1.686a3.876 3.876 0 0 1-.788 1.535c-.83.911-1.858 1.355-3.078 1.332h-4.719c-1.228 0-2.218-.384-2.992-1.144-.788-.752-1.185-1.791-1.185-3.131v-2.544c.036-2.867 1.409-4.335 4.112-4.403h7.862v-1.114c0-.918-.253-1.716-.759-2.408-.325-.452-.701-.745-1.134-.903a5.536 5.536 0 0 0-1.475-.181h-8.57v-.986h8.13c.744 0 1.416.053 2.023.158.311.068.599.188.859.376.274.173.535.429.78.768.73.978 1.085 2.107 1.07 3.379v7.578zM164.402 9.927c-2.197.045-3.288 1.294-3.244 3.755v12.064h-.946V13.69c-.044-3.168 1.402-4.749 4.343-4.749h1.047v.986h-1.199zM180.387 9.934h-7.479a5.46 5.46 0 0 0-1.46.181c-.456.105-.896.391-1.309.865-.396.429-.643.85-.744 1.272-.137.429-.203.941-.181 1.535v7.691c0 1.279.355 2.152 1.077 2.619.354.218.744.376 1.186.489.433.121.925.181 1.46.181h3.266c1.221 0 2.219-.294 2.985-.881.773-.557 1.163-1.513 1.192-2.875V9.933h.008zm.939 11.146c-.087 3.184-1.698 4.741-4.849 4.681h-3.505a9.347 9.347 0 0 1-1.987-.196c-.599-.166-1.178-.542-1.734-1.144-.419-.534-.686-1.076-.795-1.633a6.546 6.546 0 0 1-.187-1.844v-7.18c.044-3.236 1.605-4.839 4.698-4.817h7.421V3.498h.946v17.58zM1.698 8.414c.311-.143.621-.256.932-.324.571-2.837 2.977-4.96 5.868-4.96s5.304 2.13 5.868 4.96c.889.173 1.619.549 2.19 1.106a9.9 9.9 0 0 0-.058-1.558c-.369-4.282-3.815-7.639-8.014-7.639C4.156-.001.636 3.574.448 8.037c-.022.384-.036.79-.022 1.204a5.41 5.41 0 0 1 1.272-.828z"/><path fill="#d9d9d9" style="fill:var(--color1, #d9d9d9)" d="M13.195 9.054H3.548c-.462 0-.947.113-1.438.346a4.169 4.169 0 0 0-1.185.79c-.6.753-.903 1.844-.925 3.289v7.849c.022 1.445.325 2.536.925 3.281.311.316.708.579 1.185.798.499.226.976.339 1.438.339h9.64c2.493-.023 3.758-1.445 3.794-4.26v-8.181c-.029-2.815-1.301-4.23-3.787-4.252z"/></symbol><symbol id="icon-SKRILL" viewBox="0 0 96 32"><path fill="#d9d9d9" style="fill:var(--color1, #d9d9d9)" d="M68.958 7.808c2.174 0 3.94-1.699 3.94-3.79s-1.766-3.79-3.94-3.79-3.941 1.699-3.941 3.79 1.766 3.79 3.941 3.79zM38.779 9.852c-.176.426-1.456 3.905-4.553 7.512V1.955l-8.247 1.563v27.929h8.247v-8.635c2.385 3.445 3.568 8.635 3.568 8.635h9.879c-.978-3.905-5.249-11.112-5.249-11.112 3.835-4.676 5.524-9.664 5.791-10.489l-9.436.007zm21.679-.291c-7.388.23-11.139 3.418-11.139 9.752v12.141h8.057v-9.901c0-3.796.514-5.421 5.2-5.576V9.67c-.788-.162-2.118-.108-2.118-.108zm-48.306 3.363c-1.013-.061-3.349-.21-3.349-2.233 0-2.443 3.364-2.443 4.63-2.443 2.224 0 5.094.629 7.149 1.225 0 0 1.147.386 2.118.785l.091.02V3.585l-.127-.034c-2.421-.819-5.242-1.597-10.463-1.597C3.194 1.954 0 7.002 0 11.327c0 2.49 1.112 8.358 11.427 9.034.873.054 3.195.183 3.195 2.274 0 1.726-1.9 2.748-5.094 2.748-3.504 0-6.903-.859-8.965-1.672V30.6c3.089.778 6.572 1.171 10.653 1.171 8.81 0 12.75-4.778 12.75-9.508.007-5.373-4.412-8.858-11.814-9.339zm52.81 18.523h7.994V9.873h-7.994v21.574zM88.006 3.328v28.119H96V1.955l-7.994 1.374zm-11.666 0 7.987-1.374v29.492H76.34V3.327z"/></symbol><symbol id="icon-ASTROPAY" viewBox="0 0 108 32"><path fill="#d9d9d9" style="fill:var(--color1, #d9d9d9)" d="m23.317 30.135.467-.263c.249.526.767.789 1.4.789.716 0 1.125-.313 1.125-.789 0-.367-.249-.576-.825-.734l-.741-.183c-.85-.184-1.291-.576-1.291-1.181 0-.734.633-1.26 1.675-1.26.85 0 1.452.342 1.675.814l-.467.263c-.218-.367-.658-.576-1.234-.576-.658 0-1.068.263-1.068.734 0 .342.218.551.824.71l.741.183c.907.208 1.291.605 1.291 1.206 0 .759-.633 1.315-1.727 1.315-.913-.005-1.571-.397-1.846-1.027zm4.635-3.493h.576v4.435h-.576v-4.435zm6.802 4.44v-4.44h-.653l-1.809 2.704-1.81-2.704h-.601v4.435h.576v-3.592l1.618 2.441h.493l1.618-2.441v3.597h.57zm4.833-3.071c0 .838-.575 1.364-1.566 1.364h-1.317v1.707h-.575v-4.44h1.892c1.016 0 1.566.526 1.566 1.369zm-.607 0c0-.605-.301-.868-1.016-.868h-1.26v1.732h1.26c.716 0 1.016-.263 1.016-.863zm4.667 3.071v-.526h-2.468v-3.914h-.575v4.435h3.044v.005zm4.142-.526v.526h-3.235v-4.44h3.184v.526h-2.577v1.444h2.468v.501h-2.468v1.468l2.629-.025zm1.701-.263h-.575L48.588 32h.441l.461-1.707zm7.435-3.651v4.435h-.575v-3.592l-1.618 2.441h-.467l-1.618-2.441v3.597h-.575v-4.44h.601l1.809 2.704 1.784-2.704h.658zm3.51-.104c-1.426 0-2.385 1.022-2.385 2.312 0 1.285.959 2.312 2.385 2.312s2.385-1.022 2.385-2.312c0-1.285-.985-2.312-2.385-2.312zm0 .526c1.042 0 1.758.759 1.758 1.786 0 1.022-.715 1.786-1.758 1.786s-1.758-.759-1.758-1.786.716-1.786 1.758-1.786zm7.353-.422v4.435h-.55l-2.769-3.542v3.542h-.575v-4.435h.55l2.769 3.542v-3.542h.576zm4.635 4.44v-.526l-2.634.025v-1.468h2.468v-.501h-2.468v-1.444h2.577v-.526h-3.183v4.435h3.241v.005zm4.661-4.44-1.784 2.6v1.836h-.576v-1.836l-1.784-2.6h.658l1.426 2.099 1.426-2.099h.633zm.031 3.731c-.218 0-.384.159-.384.367 0 .238.135.392.384.392s.41-.159.41-.392c0-.213-.166-.367-.41-.367zM72.231.551c2.634 0 4.661.605 6.009 1.756 1.26 1.077 1.975 2.679 1.975 4.49 0 1.865-.576 3.389-1.727 4.515-1.483 1.469-3.811 2.282-6.559 2.282-.41 0-.85-.025-1.26-.055v7.377h-4.06V1.021l.633-.104A33.214 33.214 0 0 1 72.23.55zm-.249 9.634c1.535 0 4.143-.422 4.143-3.255 0-2.466-2.084-2.992-3.842-2.992-.684 0-1.234.025-1.618.079v6.092c.358.05.798.074 1.317.074zM0 20.946 7.212.684h4.117l7.217 20.262h-4.335l-2.084-5.904H6.278l-2.032 5.904H0zM8.913 7.219l-1.592 4.46h3.785L9.514 7.244c-.057-.159-.104-.313-.15-.471s-.098-.313-.15-.471c-.067.253-.15.486-.233.729a3.062 3.062 0 0 1-.067.189zm14.621 2.887c0 .551.218.893 2.167 1.627 1.784.63 4.169 1.811 4.169 4.698 0 2.863-2.416 4.802-6.009 4.802-1.592 0-3.183-.392-4.361-1.052l-.524-.288 1.099-3.279.825.471c.684.392 1.892.838 3.018.838.741 0 1.95-.159 1.95-1.26 0-.576-.135-1.077-2.084-1.761s-4.252-2.019-4.252-4.515c0-2.704 2.359-4.673 5.595-4.673 1.483 0 2.909.342 3.868.943l.493.313-1.099 3.205-.825-.501c-.441-.238-1.317-.685-2.468-.685-.954.015-1.561.432-1.561 1.116zm12.729-7.611-4.029 1.181v2.312h-2.193v3.334h2.193v6.613c0 1.836.384 3.175 1.182 4.043.767.814 1.975 1.26 3.318 1.26 1.234 0 2.11-.238 2.525-.367l.55-.183-.218-3.359-.933.263c-.275.079-.601.129-1.26.129-.493 0-1.151 0-1.151-1.89V9.317h3.676V5.983h-3.676l.016-3.488zm12.76 3.28.741.079v3.86l-.933-.184c-.192-.025-.384-.025-.715-.025-1.374 0-2.385.972-2.691 2.52-.057.263-.083.63-.083.997v7.928h-4.086V10.943c0-1.682-.026-2.992-.109-4.148l-.057-.789h3.811l.057 1.101a4.638 4.638 0 0 1 3.349-1.389c.275 0 .498.03.716.055zm8.229-.055c-4.552 0-7.762 3.23-7.762 7.874 0 4.515 3.101 7.665 7.518 7.665 3.759 0 7.793-2.466 7.793-7.903-.005-4.51-3.106-7.635-7.549-7.635zm3.401 7.72c0 2.6-1.483 4.515-3.51 4.515-2.032 0-3.484-1.865-3.484-4.435 0-1.652.741-4.49 3.541-4.49 2.712 0 3.453 2.887 3.453 4.411zm32.017 3.542v-5.041c0-4.019-2.167-6.221-6.118-6.221-1.841 0-3.733.471-5.076 1.285l-.524.313 1.099 3.096.824-.551c.85-.551 2.058-.868 3.266-.868.824 0 1.426.184 1.81.551.332.318.524.759.576 1.364-3.183.079-5.543.814-6.969 2.178-.985.943-1.483 2.153-1.483 3.572 0 2.282 1.758 4.594 5.076 4.594 1.426 0 2.769-.447 3.811-1.206l.109.893h3.868l-.135-.839a31.402 31.402 0 0 1-.135-3.121zm-6.834.998c-.601 0-1.618-.208-1.618-1.602 0-.526.166-.972.524-1.285.467-.447 1.535-.972 3.925-1.022v1.603c0 .104 0 .342-.083.551-.275.789-1.182 1.756-2.748 1.756zm15.145-3.597 2.966-8.399h4.361l-4.2 10.577c-1.727 4.386-3.044 7.06-5.045 8.742-1.649 1.34-3.101 1.652-3.51 1.732l-.684.104-1.042-3.359.716-.208c.327-.079 1.151-.392 1.975-1.052l.026-.025c.715-.551 1.426-1.469 1.918-2.466.057-.079.109-.208.135-.288-.016-.025-.026-.06-.047-.109s-.047-.114-.088-.208l-.026-.025-5.594-13.44h4.464l3.235 8.454c.057.184.135.392.218.605.041-.104.073-.208.109-.318.041-.104.073-.208.114-.318zM14.948 6.276c2.634-2.575 7.103-4.123 11.962-4.123 1.893 0 3.733.238 5.486.685l.135.025 3.101-.893-1.4-.501C31.577.502 28.534 0 25.376 0c-4.552 0-8.835 1.052-11.988 2.967l-.332.208 1.317 3.676.575-.575z"/></symbol><symbol id="icon-AMEX" viewBox="0 0 145 32"><path fill="#d9d9d9" style="fill:var(--color1, #d9d9d9)" d="M24.113 18.121 18.95 5.408l-5.133 12.713h10.296zM73.639 31.88l-.03-24.964L62.662 31.88h-6.627L45.073 6.887V31.88h-15.34l-2.899-7.111h-15.71L8.195 31.88H0L13.506 0h11.213l12.825 30.177V0h12.308l9.867 21.632L68.817 0h12.559v31.88h-7.737zm19.749-6.528v-6.349h16.568v-6.499H93.388V6.708h18.92L120.563 16l-8.624 9.352h-18.55zM144.497 32h-9.808l-9.29-10.562L115.739 32H85.857V.119h30.34l9.29 10.458L135.088.119h9.852l-14.66 15.94 14.216 15.94z"/></symbol><symbol id="icon-MASTERCARD" viewBox="0 0 50 32"><path fill="none" stroke="#d9d9d9" style="stroke:var(--color1, #d9d9d9)" stroke-miterlimit="10" stroke-width="2.56" d="M47.966 15.707c0 7.967-6.46 14.427-14.427 14.427a14.422 14.422 0 0 1-8.916-3.086 14.398 14.398 0 0 1-5.51-11.341 14.398 14.398 0 0 1 5.51-11.341C30.886-.559 39.955.527 44.88 6.79c2 2.545 3.086 5.682 3.086 8.916z"/><path fill="none" stroke="#d9d9d9" style="stroke:var(--color1, #d9d9d9)" stroke-miterlimit="10" stroke-width="2.56" d="M30.133 15.707c0 7.967-6.46 14.427-14.426 14.427a14.422 14.422 0 0 1-8.916-3.086 14.398 14.398 0 0 1-5.51-11.341 14.398 14.398 0 0 1 5.51-11.341C13.054-.559 22.123.527 27.048 6.79c2 2.545 3.086 5.682 3.086 8.916z"/></symbol><symbol id="icon-VISA" viewBox="0 0 101 32"><path fill="#d9d9d9" style="fill:var(--color1, #d9d9d9)" d="M58.498 25.546a17.58 17.58 0 0 1-8.368-1.96l-1.469 6.784a24.684 24.684 0 0 0 9.04 1.63c8.552-.005 14.139-4.246 14.213-10.58.047-8.182-11.401-8.625-11.401-12.283.026-1.094 1.091-2.285 3.463-2.585 2.76-.248 5.53.237 8.032 1.398l1.422-6.572A22.245 22.245 0 0 0 65.796.001c-8.038 0-13.746 4.22-13.746 10.23 0 4.452 3.935 6.876 7.109 8.414s4.218 2.492 4.218 3.869c-.142 2.079-2.508 3.033-4.879 3.033zM21.238 21.584 17.802 3.683C17.519 1.867 15.929.521 14.056.516H.19l-.189.913a34.417 34.417 0 0 1 8.038 2.636A3.354 3.354 0 0 1 9.98 6.794l6.401 24.725h8.578L38.259.608h-8.536l-8.484 20.975zM34.936 31.514h8.226L49.799.562h-8.132l-6.731 30.952zM87.269.516c-1.532.005-2.907.929-3.463 2.332L71.598 31.515h8.531l1.705-4.664h10.43l.997 4.664 7.539-.046L94.237.517H87.27zm-3.221 20.046L88.34 8.934l2.466 11.628h-6.757z"/></symbol><symbol id="icon-Logo" viewBox="0 0 126 32"><path fill="#fff" style="fill:var(--color2, #fff)" d="M0 .34h6.17v25.362h14.723v5.957H-.001V.34zM24.473 16.043c0-2.156.411-4.199 1.234-6.128s1.958-3.631 3.404-5.106c1.475-1.504 3.177-2.681 5.106-3.532S38.217 0 40.43 0c2.184 0 4.241.426 6.17 1.277s3.631 2.028 5.106 3.532a15.715 15.715 0 0 1 3.489 5.106 15.016 15.016 0 0 1 1.277 6.128c0 2.213-.426 4.284-1.277 6.213a15.746 15.746 0 0 1-3.489 5.106c-1.475 1.447-3.177 2.582-5.106 3.404S42.614 32 40.43 32c-2.213 0-4.284-.411-6.213-1.234s-3.631-1.957-5.106-3.404c-1.447-1.475-2.582-3.177-3.404-5.106s-1.234-4-1.234-6.213zm6.383 0c0 1.39.241 2.695.723 3.915a10.91 10.91 0 0 0 2.085 3.192 10.107 10.107 0 0 0 3.106 2.128c1.191.511 2.482.766 3.872.766 1.333 0 2.567-.255 3.702-.766a9.121 9.121 0 0 0 3.021-2.128c.851-.936 1.518-2 2-3.192.482-1.22.723-2.525.723-3.915 0-1.418-.255-2.738-.766-3.957a9.59 9.59 0 0 0-2.043-3.191c-.851-.936-1.858-1.66-3.021-2.17s-2.425-.766-3.787-.766-2.624.255-3.787.766-2.184 1.234-3.064 2.17c-.88.908-1.56 1.972-2.043 3.191s-.723 2.539-.723 3.957zM88.029 28.511c-.369.397-.95.808-1.745 1.234-.794.397-1.716.766-2.766 1.106a23.25 23.25 0 0 1-3.149.808c-1.078.227-2.099.34-3.064.34-2.553 0-4.851-.369-6.894-1.106-2.043-.766-3.787-1.816-5.234-3.149-1.447-1.362-2.553-2.965-3.319-4.809s-1.149-3.858-1.149-6.042c0-2.865.425-5.348 1.277-7.447.88-2.128 2.057-3.887 3.532-5.277a14.437 14.437 0 0 1 5.149-3.149c1.957-.681 4-1.021 6.128-1.021 2.014 0 3.858.227 5.532.681 1.674.426 3.092.965 4.255 1.617l-2 5.745c-.511-.284-1.192-.567-2.043-.851s-1.716-.511-2.596-.681c-.879-.199-1.66-.298-2.34-.298-1.702 0-3.206.213-4.511.638s-2.411 1.064-3.319 1.915c-.879.851-1.546 1.915-2 3.191-.454 1.248-.681 2.709-.681 4.383 0 1.475.255 2.808.766 4a8.677 8.677 0 0 0 2.128 2.979 9.571 9.571 0 0 0 3.277 1.872c1.277.425 2.681.638 4.213.638.879 0 1.688-.057 2.426-.17.738-.142 1.362-.355 1.872-.638v-3.787H76.37v-5.958h11.66v13.234zM93.123 16.043c0-2.156.411-4.199 1.234-6.128s1.957-3.631 3.404-5.106c1.475-1.504 3.177-2.681 5.106-3.532S106.867 0 109.08 0c2.184 0 4.241.426 6.17 1.277s3.631 2.028 5.106 3.532a15.715 15.715 0 0 1 3.489 5.106 15 15 0 0 1 1.278 6.128c0 2.213-.426 4.284-1.278 6.213a15.715 15.715 0 0 1-3.489 5.106c-1.475 1.447-3.177 2.582-5.106 3.404S111.264 32 109.08 32c-2.213 0-4.284-.411-6.213-1.234s-3.631-1.957-5.106-3.404c-1.447-1.475-2.582-3.177-3.404-5.106s-1.234-4-1.234-6.213zm6.383 0c0 1.39.241 2.695.723 3.915a10.91 10.91 0 0 0 2.085 3.192 10.107 10.107 0 0 0 3.106 2.128c1.192.511 2.482.766 3.872.766 1.333 0 2.567-.255 3.702-.766a9.121 9.121 0 0 0 3.021-2.128c.851-.936 1.518-2 2-3.192.482-1.22.723-2.525.723-3.915 0-1.418-.255-2.738-.766-3.957a9.59 9.59 0 0 0-2.043-3.191c-.851-.936-1.858-1.66-3.021-2.17s-2.425-.766-3.787-.766-2.624.255-3.787.766a9.302 9.302 0 0 0-3.064 2.17c-.879.908-1.56 1.972-2.043 3.191s-.723 2.539-.723 3.957z"/></symbol></defs></svg>